<svg height="512" viewBox="0 0 58 58" width="512" xmlns="http://www.w3.org/2000/svg"><g id="Page-1" fill="none" fill-rule="evenodd"><g id="025---Graphical-Data-UI" fill-rule="nonzero" transform="translate(-1)"><path id="Shape" d="m41 54-11 2-11-2 3-6 8-2 8 2z" fill="#35495e"/><path id="Shape" d="m59 40v5.82c.0452102 1.152631-.8477494 2.1259569-2 2.18h-54c-1.15225064-.0540431-2.04521019-1.027369-2-2.18v-5.82z" fill="#547580"/><path id="Shape" d="m59 2.18v39.82h-58v-39.82c-.04521019-1.152631.84774936-2.12595691 2-2.18h54c1.1522506.05404309 2.0452102 1.027369 2 2.18z" fill="#2fa8cc"/><path id="Shape" d="m57.39.04c-9.36.38-56.39 4.14-56.39 41.96v-39.82c-.04521019-1.152631.84774936-2.12595691 2-2.18h54c.1311216-.00207169.2620289.01135469.39.04z" fill="#67b9cc"/><path id="Shape" d="m47 56c-.0032948 1.1032019-.8967981 1.9967052-2 2h-30c-1.1011688-.0081672-1.9918328-.8988312-2-2 .0032948-1.1032019.8967981-1.9967052 2-2h30c1.1011688.0081672 1.9918328.8988312 2 2z" fill="#547580"/><path id="Shape" d="m47.094 4.384 2.106 4.487c.0932252.20130049.2808206.34274744.5.377l4.734.722c.2511095.0460454.4562736.2269792.5333517.4703619.0770782.2433827.0134725.5094347-.1653517.6916381l-3.437 3.515c-.1536567.1592056-.2229963.3816858-.187.6l.81 4.954c.0494527.2512567-.0497582.5085863-.25508.6616172s-.4802715.1745715-.70692.0553828l-4.216-2.326c-.1935406-.1069521-.4284594-.1069521-.622 0l-4.216 2.326c-.2266485.1191887-.5015982.0976481-.70692-.0553828s-.3045327-.4103605-.25508-.6616172l.81-4.954c.0359963-.2183142-.0333433-.4407944-.187-.6l-3.433-3.515c-.1788242-.1822034-.2424299-.4482554-.1653517-.6916381.0770781-.2433827.2822422-.4243165.5333517-.4703619l4.734-.722c.2191794-.03425256.4067748-.17569951.5-.377l2.11-4.487c.106448-.2304562.3371472-.37801648.591-.37801648s.484552.14756028.591.37801648z" fill="#f0c419"/><path id="Shape" d="m6 32c-.4043959-.0000863-.76893405-.2437275-.92367798-.6173454-.15474393-.373618-.06922994-.8036603.21667798-1.0896546l10-10c.3904999-.3903819 1.0235001-.3903819 1.414 0l6.793 6.793 12.793-12.793c.3923789-.3789722 1.0160848-.3735524 1.4018186.0121814s.3911536 1.0094397.0121814 1.4018186l-13.5 13.5c-.3904999.3903819-1.0235001.3903819-1.414 0l-6.793-6.793-9.293 9.293c-.18749273.1875494-.44180519.2929434-.707.293z" fill="#c03a2b"/><rect id="Rectangle-path" fill="#955ba5" height="6" rx="1" width="10" x="6" y="6"/><rect id="Rectangle-path" fill="#955ba5" height="6" rx="1" width="10" x="20" y="6"/><g fill="#f3d55b"><path id="Shape" d="m6 39c-.55228475 0-1-.4477153-1-1v-3c0-.5522847.44771525-1 1-1s1 .4477153 1 1v3c0 .5522847-.44771525 1-1 1z"/><path id="Shape" d="m11 39c-.5522847 0-1-.4477153-1-1v-6c0-.5522847.4477153-1 1-1s1 .4477153 1 1v6c0 .5522847-.4477153 1-1 1z"/><path id="Shape" d="m21 39c-.5522847 0-1-.4477153-1-1v-6c0-.5522847.4477153-1 1-1s1 .4477153 1 1v6c0 .5522847-.4477153 1-1 1z"/><path id="Shape" d="m26 39c-.5522847 0-1-.4477153-1-1v-6c0-.5522847.4477153-1 1-1s1 .4477153 1 1v6c0 .5522847-.4477153 1-1 1z"/><path id="Shape" d="m46 39c-.5522847 0-1-.4477153-1-1v-14c0-.5522847.4477153-1 1-1s1 .4477153 1 1v14c0 .5522847-.4477153 1-1 1z"/><path id="Shape" d="m31 39c-.5522847 0-1-.4477153-1-1v-11c0-.5522847.4477153-1 1-1s1 .4477153 1 1v11c0 .5522847-.4477153 1-1 1z"/><path id="Shape" d="m41 39c-.5522847 0-1-.4477153-1-1v-12c0-.5522847.4477153-1 1-1s1 .4477153 1 1v12c0 .5522847-.4477153 1-1 1z"/><path id="Shape" d="m51 39c-.5522847 0-1-.4477153-1-1v-12c0-.5522847.4477153-1 1-1s1 .4477153 1 1v12c0 .5522847-.4477153 1-1 1z"/><path id="Shape" d="m36 39c-.5522847 0-1-.4477153-1-1v-16c0-.5522847.4477153-1 1-1s1 .4477153 1 1v16c0 .5522847-.4477153 1-1 1z"/><path id="Shape" d="m16 39c-.5522847 0-1-.4477153-1-1v-11c0-.5522847.4477153-1 1-1s1 .4477153 1 1v11c0 .5522847-.4477153 1-1 1z"/></g></g></g></svg>